<svg xmlns="http://www.w3.org/2000/svg" viewBox="0 0 54.21 54.19"><defs><style>.cls-1{fill:#00a679;}.cls-2{fill:#fed479;}.cls-3{fill:#70309f;}</style></defs><g id="Layer_2" data-name="Layer 2"><g id="Layer_1-2" data-name="Layer 1"><path class="cls-1" d="M26.88,26.88a1.18,1.18,0,0,0-.23.41c-.88,1.09-2.14,1-3.34,1q-9.9.06-19.8,0c-1.19,0-2.46.07-3.33-1C-.83,15.48,9.14,3,21.52.62A17.57,17.57,0,0,1,26.78.08a3.62,3.62,0,0,1,.82,2.84c0,7,0,14.05,0,21.07A4.14,4.14,0,0,1,26.88,26.88Z"/><path class="cls-2" d="M27.44.09C35.62.07,43.81.09,52,0c1.66,0,2.33.38,2.2,2.18C53.26,15.61,40.92,27,27.44,26.81c-.63-1.13-.3-2.35-.31-3.52q0-10.26,0-20.51C27.13,1.88,26.85.93,27.44.09Z"/><path class="cls-3" d="M.18,27.28H26.65C27.58,39,17.41,51.5,5.1,53.72,0,54.64,0,54.64,0,49.58,0,42.15.12,34.72.18,27.28Z"/></g></g></svg>